Coordinates
version=1
nRows=24
nColumns=24
inDegrees=yes

Units are S.I. units (second, meters, Newtons, ...)
Angles are in degrees.

endheader
time	pelvis_tilt	pelvis_list	pelvis_rotation	pelvis_tx	pelvis_ty	pelvis_tz	hip_flexion_r	hip_adduction_r	hip_rotation_r	knee_angle_r	ankle_angle_r	subtalar_angle_r	mtp_angle_r	hip_flexion_l	hip_adduction_l	hip_rotation_l	knee_angle_l	ankle_angle_l	subtalar_angle_l	mtp_angle_l	lumbar_extension	lumbar_bending	lumbar_rotation
      0.48800000	     -4.60793256	      0.69807056	      5.25226483	     -0.80375582	      1.01302487	      0.32141484	     25.11314450	     -0.16408455	     -8.15921781	      1.51997938	      0.51456667	     -1.64138883	      6.89966446	     -6.70871073	      4.74518223	      6.79361803	    -12.75508131	     13.74549469	     -6.06788437	     -3.83775452	     -2.69279258	     -4.10204371	     -4.61116722
      0.49216667	     -4.60365134	      0.61907007	      5.29032700	     -0.79794213	      1.01236712	      0.32154103	     25.17999297	     -0.02279900	     -8.02667724	      1.13672152	      0.44027010	     -1.79197073	      6.91577801	     -6.74585133	      4.65057421	      6.80393234	    -13.39207829	     13.82918997	     -6.08746833	     -3.82858160	     -2.63764737	     -3.96834507	     -4.59315132
      0.49633333	     -4.64981110	      0.52610477	      5.32797701	     -0.79210984	      1.01163885	      0.32169242	     25.29328552	      0.13080584	     -7.77365837	      0.71370748	      0.23278017	     -2.14970321	      6.96987671	     -6.68215564	      4.53441605	      6.70289377	    -14.12405366	     13.96431756	     -5.85442741	     -3.78959996	     -2.53777186	     -3.84584108	     -4.56183583
      0.50050000	     -4.63337778	      0.41575006	      5.35584476	     -0.78621289	      1.01103015	      0.32184006	     25.34175083	      0.30946252	     -7.52518308	      0.23216519	     -0.02782287	     -2.58172588	      7.06023075	     -6.66675905	      4.39466947	      6.56792730	    -14.89463339	     14.07738180	     -5.62988891	     -3.71743542	     -2.50486789	     -3.68821422	     -4.53173173
      0.50466667	     -4.62564891	      0.31168330	      5.38695303	     -0.78029957	      1.01044237	      0.32195730	     25.41238889	      0.47292147	     -7.27950528	     -0.32874163	     -0.30527954	     -3.01467073	      7.15777950	     -6.62673619	      4.26870176	      6.46286995	    -15.69520560	     14.13023305	     -5.49120380	     -3.63259732	     -2.44223822	     -3.52181477	     -4.51090786
      0.50883333	     -4.57135922	      0.18926424	      5.41366786	     -0.77434497	      1.00995848	      0.32209595	     25.42294729	      0.66428946	     -7.00560216	     -0.90386153	     -0.68577434	     -3.56891075	      7.28728770	     -6.60823738	      4.11273998	      6.31019379	    -16.54471613	     14.17142344	     -5.27548151	     -3.50691418	     -2.44097847	     -3.33809409	     -4.48621859
      0.51300000	     -4.56791633	      0.07625081	      5.43561441	     -0.76835856	      1.00941018	      0.32222609	     25.50111199	      0.83897207	     -6.72151292	     -1.54561753	     -1.07714669	     -4.13534194	      7.42279693	     -6.51479529	      3.97656213	      6.16318783	    -17.43942942	     14.16157999	     -5.10713854	     -3.36300205	     -2.35803468	     -3.16586163	     -4.46631904
      0.51716667	     -4.49062737	     -0.06025004	      5.46397589	     -0.76232618	      1.00902088	      0.32235771	     25.48253108	      1.04470252	     -6.41542573	     -2.18012378	     -1.55809097	     -4.80076769	      7.57937479	     -6.47813148	      3.79866639	      5.97364303	    -18.36590703	     14.11615725	     -4.89367648	     -3.17479717	     -2.37059186	     -2.95739898	     -4.44209607
      0.52133333	     -4.45884503	     -0.17300530	      5.48785057	     -0.75630550	      1.00857562	      0.32250528	     25.53169498	      1.22141327	     -6.10784275	     -2.87919409	     -2.03212926	     -5.45571007	      7.73826001	     -6.36576995	      3.65341577	      5.79540353	    -19.34812184	     14.01663372	     -4.71784472	     -2.96122752	     -2.32645584	     -2.79040052	     -4.42263295
      0.52550000	     -4.34414693	     -0.29872807	      5.51311174	     -0.75022862	      1.00830704	      0.32266161	     25.47689383	      1.41980015	     -5.82490557	     -3.56387407	     -2.60605189	     -6.17869544	      9.93303350	     -6.32688330	      3.47518617	      5.57441872	    -20.33898351	     13.82200019	     -4.53801158	      0.23859796	     -2.38249954	     -2.59784118	     -4.37762393
      0.52966667	     -4.29433748	     -0.42004469	      5.54360190	     -0.74414834	      1.00797601	      0.32282253	     25.49967009	      1.60500414	     -5.52687328	     -4.28930512	     -3.13593297	     -6.87334774	      9.92807790	     -6.18712444	      3.30737630	      5.36035343	    -21.39328500	     13.63175183	     -4.33979101	      0.30843404	     -2.35179088	     -2.42432485	     -4.38125292
      0.53383333	     -4.19926969	     -0.55382313	      5.56937883	     -0.73803187	      1.00775311	      0.32300735	     25.46141284	      1.81144959	     -5.22161294	     -5.00263268	     -3.69250381	     -7.59452605	      9.93023620	     -6.07257047	      3.11118892	      5.09851659	    -22.48053036	     13.37698320	     -4.11944320	      0.44277380	     -2.36943425	     -2.21685482	     -4.35816498
      0.53800000	     -4.07033883	     -0.69570366	      5.58871448	     -0.73188504	      1.00762191	      0.32322993	     25.37305981	      2.03520196	     -4.90724112	     -5.69641984	     -4.27340637	     -8.31197361	      9.96935577	     -5.97139217	      2.89120170	      4.79002979	    -23.60169843	     13.04573670	     -3.91082794	      1.04176303	     -2.43195231	     -2.00451311	     -4.32476412
      0.54216667	     -4.03328532	     -0.81025637	      5.62651521	     -0.72575679	      1.00740064	      0.32343250	     25.41414063	      2.20713532	     -4.65776143	     -6.47967338	     -4.73514317	     -8.95028399	      9.96972641	     -5.74219753	      2.70791561	      4.52316302	    -24.76075139	     12.64774246	     -3.69774089	      1.26640626	     -2.36913624	     -1.83276625	     -4.31683051
      0.54633333	     -3.92697540	     -0.94347612	      5.65823625	     -0.71959045	      1.00732732	      0.32367800	     25.35338143	      2.41373811	     -4.38243837	     -7.21099199	     -5.23044731	     -9.61948864	      9.96211603	     -5.56448427	      2.47939921	      4.18979448	    -25.94742836	     12.19684107	     -3.44452173	      1.59425065	     -2.39479667	     -1.63808561	     -4.28842030
      0.55050000	     -3.80838513	     -1.08439111	      5.68363667	     -0.71340705	      1.00732600	      0.32395953	     25.27513258	      2.63173276	     -4.12530280	     -7.94200992	     -5.68968980	    -10.24398142	      9.94126500	     -5.37475348	      2.22983767	      3.82959496	    -27.16824852	     11.63898387	     -3.21356643	      2.00148790	     -2.43318700	     -1.42640923	     -4.26222749
      0.55466667	     -3.66216299	     -1.20938896	      5.71601333	     -0.70722776	      1.00741031	      0.32424859	     25.17046315	      2.82962055	     -3.92509117	     -8.69658221	     -6.01311282	    -10.72970350	      9.66087907	     -5.20129339	      1.98608448	      3.48050674	    -28.37635148	     10.82914128	     -3.11710667	      6.90459623	     -2.51293017	     -1.24402611	     -4.23096194
      0.55883333	     -3.54438481	     -1.35308127	      5.74995468	     -0.70102656	      1.00750165	      0.32455208	     25.08984122	      3.04155906	     -3.74496319	     -9.44626591	     -6.29566294	    -11.17461214	      9.63915587	     -4.95563346	      1.70759892	      3.08295093	    -29.66298551	     10.14970054	     -2.86987729	      6.98501499	     -2.54428227	     -1.03405863	     -4.20469597
      0.56300000	     -3.40329553	     -1.49224991	      5.78081706	     -0.69482519	      1.00767505	      0.32489896	     24.97151744	      3.25739077	     -3.55432820	    -10.17972953	     -6.53622049	    -11.63606653	      9.59352812	     -4.71517633	      1.41898453	      2.67391919	    -30.96070856	      9.33938756	     -2.66464260	      7.16633924	     -2.60770489	     -0.83889186	     -4.17108822
      0.56716667	     -3.27529292	     -1.62873184	      5.81013155	     -0.68863163	      1.00786283	      0.32527512	     24.86317996	      3.47003978	     -3.37965808	    -10.91223017	     -6.70422030	    -12.06264953	      9.50428440	     -4.43399024	      1.12310296	      2.25825562	    -32.28976618	      8.43693000	     -2.48410222	      7.52793033	     -2.65247875	     -0.65620480	     -4.12033187
      0.57133333	     -3.07465285	     -1.77914618	      5.85525381	     -0.68242480	      1.00823265	      0.32562058	     24.66147797	      3.69218013	     -3.28323935	    -11.62935403	     -6.70770497	    -12.31981709	      8.56334152	     -4.21400056	      0.79572968	      1.86335503	    -33.60378985	      7.30807406	     -2.44087577	     11.35552548	     -2.79206911	     -0.42916713	     -4.09909613
      0.57550000	     -2.90525104	     -1.90305457	      5.89179925	     -0.67624417	      1.00857705	      0.32599851	     24.50204264	      3.88156101	     -3.22984480	    -12.37362365	     -6.63946018	    -12.49655124	      8.56178277	     -3.92839384	      0.48649298	      1.43938851	    -34.96867388	      6.22568770	     -2.29589650	     11.36083607	     -2.89264275	     -0.25284139	     -4.07675524
      0.57966667	     -2.76215550	     -2.05964206	      5.90930136	     -0.67005529	      1.00892320	      0.32646434	     24.33904482	      4.12539151	     -3.08265109	    -13.04842143	     -6.60442680	    -12.79987801	      8.49012651	     -3.58422691	      0.12514912	      0.97694797	    -36.36246571	      5.07239708	     -2.16788585	     11.58202438	     -2.95202028	     -0.06606294	     -3.97476495
      0.58383333	     -2.57136472	     -2.21402179	      5.95108162	     -0.66387936	      1.00938724	      0.32688500	     24.11401056	      4.35256124	     -3.04556452	    -13.71363065	     -6.42282224	    -12.92099204	      8.47156170	     -3.26900794	     -0.24571197	      0.55630202	    -37.76198504	      3.81762030	     -2.05797435	     11.63305756	     -3.08331705	      0.14350185	     -3.96237593
